<svg xmlns="http://www.w3.org/2000/svg" width="1600" height="1000" viewBox="0 0 1600 1000">
  <rect width="1600" height="1000" fill="#101411"/>
  <defs>
    <pattern id="grid" width="48" height="48" patternUnits="userSpaceOnUse">
      <path d="M48 0H0V48" fill="none" stroke="#1f2a24" stroke-width="1"/>
    </pattern>
  </defs>
  <rect width="1600" height="1000" fill="url(#grid)" opacity="0.65"/>
  <rect x="54" y="44" width="1492" height="86" rx="20" fill="#151b17" stroke="#2d3c34"/>
  <text x="88" y="96" fill="#f4f0e6" font-size="30" font-family="Arial, Helvetica, sans-serif" font-weight="700">ReplayFence</text>
  <text x="1260" y="95" fill="#38f8b8" font-size="20" font-family="Menlo, monospace">Pharos Atlantic / chainId 688689</text>
  <text x="86" y="236" fill="#38f8b8" font-size="24" font-family="Menlo, monospace">PHAROS ONCE-LATCH SKILL</text>
  <text x="86" y="335" fill="#f4f0e6" font-size="72" font-family="Arial, Helvetica, sans-serif" font-weight="800">Fence one agent action</text>
  <text x="86" y="425" fill="#f4f0e6" font-size="72" font-family="Arial, Helvetica, sans-serif" font-weight="800">in 60 seconds.</text>
  <text x="90" y="498" fill="#cbd8ce" font-size="28" font-family="Arial, Helvetica, sans-serif">Run once. Replay the same action. Export the proof capsule.</text>
  <rect x="90" y="568" width="250" height="66" rx="14" fill="#38f8b8"/>
  <text x="126" y="610" fill="#101411" font-size="24" font-family="Arial, Helvetica, sans-serif" font-weight="800">Try as Guest</text>
  <rect x="366" y="568" width="250" height="66" rx="14" fill="#181f1b" stroke="#526458"/>
  <text x="405" y="610" fill="#f4f0e6" font-size="24" font-family="Arial, Helvetica, sans-serif" font-weight="700">Skill Docs</text>
  <rect x="842" y="198" width="604" height="640" rx="28" fill="#151b17" stroke="#314338" stroke-width="2"/>
  <rect x="884" y="246" width="520" height="142" rx="20" fill="#1c241f" stroke="#47584d"/>
  <text x="914" y="289" fill="#f5b84b" font-size="20" font-family="Menlo, monospace">SAFE DEMO ACTION</text>
  <text x="914" y="332" fill="#f4f0e6" font-size="30" font-family="Arial, Helvetica, sans-serif" font-weight="800">mock payout intent: invoice-042</text>
  <text x="914" y="365" fill="#cbd8ce" font-size="18" font-family="Menlo, monospace">toolId demoTreasury.requestPayout</text>
  <line x1="914" y1="456" x2="914" y2="730" stroke="#526458" stroke-width="4"/>
  <circle cx="914" cy="456" r="14" fill="#38f8b8"/>
  <text x="950" y="464" fill="#f4f0e6" font-size="24" font-family="Arial, Helvetica, sans-serif" font-weight="700">CONSUMED</text>
  <text x="950" y="494" fill="#9fb2a5" font-size="17" font-family="Menlo, monospace">tx 0x8a1e...f3b4 / LatchConsumed</text>
  <circle cx="914" cy="590" r="14" fill="#ff5a66"/>
  <text x="950" y="598" fill="#f4f0e6" font-size="24" font-family="Arial, Helvetica, sans-serif" font-weight="700">REPLAY_REJECTED</text>
  <text x="950" y="628" fill="#9fb2a5" font-size="17" font-family="Menlo, monospace">same latch key already consumed</text>
  <circle cx="914" cy="730" r="14" fill="#7ec8ff"/>
  <text x="950" y="738" fill="#f4f0e6" font-size="24" font-family="Arial, Helvetica, sans-serif" font-weight="700">CAPSULE READY</text>
  <text x="950" y="768" fill="#9fb2a5" font-size="17" font-family="Menlo, monospace">export replayfence-capsule.json</text>
</svg>
