<svg xmlns="http://www.w3.org/2000/svg" width="1600" height="1000" viewBox="0 0 1600 1000">
  <rect width="1600" height="1000" fill="#101411"/>
  <rect x="40" y="34" width="1520" height="80" rx="18" fill="#151b17" stroke="#2d3c34"/>
  <text x="78" y="84" fill="#f4f0e6" font-size="28" font-family="Arial, Helvetica, sans-serif" font-weight="800">ReplayFence / Action Sandbox</text>
  <text x="1140" y="84" fill="#38f8b8" font-size="18" font-family="Menlo, monospace">guest active - relayer healthy - Pharos Atlantic</text>
  <rect x="56" y="150" width="460" height="710" rx="26" fill="#151b17" stroke="#3c4f43" stroke-width="2"/>
  <text x="92" y="204" fill="#f5b84b" font-size="19" font-family="Menlo, monospace">DEMO ACTION</text>
  <text x="92" y="254" fill="#f4f0e6" font-size="32" font-family="Arial, Helvetica, sans-serif" font-weight="800">Agent payout intent</text>
  <text x="92" y="300" fill="#cbd8ce" font-size="20" font-family="Menlo, monospace">invoiceId: invoice-042</text>
  <text x="92" y="334" fill="#cbd8ce" font-size="20" font-family="Menlo, monospace">amount: 100 DEMO</text>
  <text x="92" y="368" fill="#cbd8ce" font-size="20" font-family="Menlo, monospace">risk: duplicate payout</text>
  <rect x="92" y="430" width="360" height="64" rx="14" fill="#38f8b8"/>
  <text x="130" y="471" fill="#101411" font-size="23" font-family="Arial, Helvetica, sans-serif" font-weight="800">Fence + Execute Once</text>
  <rect x="92" y="520" width="360" height="64" rx="14" fill="#ff5a66"/>
  <text x="138" y="561" fill="#101411" font-size="23" font-family="Arial, Helvetica, sans-serif" font-weight="800">Replay Same Action</text>
  <rect x="92" y="622" width="360" height="110" rx="18" fill="#1c241f" stroke="#47584d"/>
  <text x="118" y="660" fill="#f4f0e6" font-size="20" font-family="Arial, Helvetica, sans-serif" font-weight="700">Safety boundary</text>
  <text x="118" y="694" fill="#9fb2a5" font-size="17" font-family="Arial, Helvetica, sans-serif">Testnet-safe mock action. No real funds.</text>
  <rect x="556" y="150" width="492" height="710" rx="26" fill="#151b17" stroke="#3c4f43" stroke-width="2"/>
  <text x="592" y="204" fill="#f4f0e6" font-size="28" font-family="Arial, Helvetica, sans-serif" font-weight="800">Latch timeline</text>
  <line x1="620" y1="262" x2="620" y2="760" stroke="#526458" stroke-width="4"/>
  <circle cx="620" cy="284" r="15" fill="#38f8b8"/>
  <text x="658" y="292" fill="#f4f0e6" font-size="23" font-family="Arial, Helvetica, sans-serif" font-weight="700">Canonicalized action</text>
  <text x="658" y="324" fill="#9fb2a5" font-size="17" font-family="Menlo, monospace">sha256 4d91...20ac</text>
  <circle cx="620" cy="420" r="15" fill="#38f8b8"/>
  <text x="658" y="428" fill="#f4f0e6" font-size="23" font-family="Arial, Helvetica, sans-serif" font-weight="700">Latch consumed</text>
  <text x="658" y="460" fill="#9fb2a5" font-size="17" font-family="Menlo, monospace">0x72bd...9fe1</text>
  <circle cx="620" cy="556" r="15" fill="#ff5a66"/>
  <text x="658" y="564" fill="#f4f0e6" font-size="23" font-family="Arial, Helvetica, sans-serif" font-weight="700">Replay rejected</text>
  <text x="658" y="596" fill="#9fb2a5" font-size="17" font-family="Menlo, monospace">same latch key</text>
  <circle cx="620" cy="692" r="15" fill="#7ec8ff"/>
  <text x="658" y="700" fill="#f4f0e6" font-size="23" font-family="Arial, Helvetica, sans-serif" font-weight="700">Capsule ready</text>
  <text x="658" y="732" fill="#9fb2a5" font-size="17" font-family="Menlo, monospace">proof status FETCHED</text>
  <rect x="1088" y="150" width="456" height="710" rx="26" fill="#151b17" stroke="#3c4f43" stroke-width="2"/>
  <text x="1124" y="204" fill="#f4f0e6" font-size="28" font-family="Arial, Helvetica, sans-serif" font-weight="800">Proof capsule</text>
  <rect x="1124" y="246" width="382" height="420" rx="18" fill="#0d110f" stroke="#2d3c34"/>
  <text x="1150" y="286" fill="#38f8b8" font-size="18" font-family="Menlo, monospace">{ schema: replayfence.capsule.v1 }</text>
  <text x="1150" y="332" fill="#cbd8ce" font-size="18" font-family="Menlo, monospace">chainId: 688689</text>
  <text x="1150" y="376" fill="#cbd8ce" font-size="18" font-family="Menlo, monospace">firstTxHash: 0x8a1e...f3b4</text>
  <text x="1150" y="420" fill="#cbd8ce" font-size="18" font-family="Menlo, monospace">latchKey: 0x72bd...9fe1</text>
  <text x="1150" y="464" fill="#ff5a66" font-size="18" font-family="Menlo, monospace">replay: REPLAY_REJECTED</text>
  <text x="1150" y="508" fill="#7ec8ff" font-size="18" font-family="Menlo, monospace">proof: PROOF_FETCHED</text>
  <rect x="1124" y="708" width="172" height="58" rx="12" fill="#38f8b8"/>
  <text x="1162" y="745" fill="#101411" font-size="21" font-family="Arial, Helvetica, sans-serif" font-weight="800">Verify</text>
  <rect x="1328" y="708" width="178" height="58" rx="12" fill="#181f1b" stroke="#526458"/>
  <text x="1360" y="745" fill="#f4f0e6" font-size="21" font-family="Arial, Helvetica, sans-serif" font-weight="800">Export JSON</text>
</svg>
