<svg xmlns="http://www.w3.org/2000/svg" width="390" height="844" viewBox="0 0 390 844">
  <rect width="390" height="844" fill="#101411"/>
  <rect x="18" y="18" width="354" height="58" rx="16" fill="#151b17" stroke="#2d3c34"/>
  <text x="36" y="54" fill="#f4f0e6" font-size="20" font-family="Arial, Helvetica, sans-serif" font-weight="800">ReplayFence</text>
  <text x="220" y="54" fill="#38f8b8" font-size="12" font-family="Menlo, monospace">Pharos 688689</text>
  <text x="24" y="130" fill="#38f8b8" font-size="13" font-family="Menlo, monospace">GUEST ACTION SANDBOX</text>
  <text x="24" y="178" fill="#f4f0e6" font-size="32" font-family="Arial, Helvetica, sans-serif" font-weight="800">Fence one</text>
  <text x="24" y="218" fill="#f4f0e6" font-size="32" font-family="Arial, Helvetica, sans-serif" font-weight="800">agent action.</text>
  <rect x="22" y="252" width="346" height="170" rx="22" fill="#151b17" stroke="#3c4f43"/>
  <text x="44" y="292" fill="#f5b84b" font-size="13" font-family="Menlo, monospace">SAFE DEMO ACTION</text>
  <text x="44" y="328" fill="#f4f0e6" font-size="21" font-family="Arial, Helvetica, sans-serif" font-weight="800">Mock payout intent</text>
  <text x="44" y="360" fill="#cbd8ce" font-size="14" font-family="Menlo, monospace">invoice-042 / 100 DEMO</text>
  <text x="44" y="392" fill="#9fb2a5" font-size="13" font-family="Arial, Helvetica, sans-serif">Testnet-safe. No real funds.</text>
  <rect x="22" y="446" width="346" height="190" rx="22" fill="#151b17" stroke="#3c4f43"/>
  <text x="44" y="486" fill="#f4f0e6" font-size="20" font-family="Arial, Helvetica, sans-serif" font-weight="800">First-run timeline</text>
  <circle cx="54" cy="528" r="9" fill="#38f8b8"/>
  <text x="76" y="534" fill="#f4f0e6" font-size="15" font-family="Arial, Helvetica, sans-serif">Canonicalize action</text>
  <circle cx="54" cy="570" r="9" fill="#38f8b8"/>
  <text x="76" y="576" fill="#f4f0e6" font-size="15" font-family="Arial, Helvetica, sans-serif">Consume Pharos latch</text>
  <circle cx="54" cy="612" r="9" fill="#ff5a66"/>
  <text x="76" y="618" fill="#f4f0e6" font-size="15" font-family="Arial, Helvetica, sans-serif">Replay gets rejected</text>
  <rect x="22" y="660" width="346" height="76" rx="20" fill="#0d110f" stroke="#2d3c34"/>
  <text x="44" y="694" fill="#7ec8ff" font-size="14" font-family="Menlo, monospace">capsule ready after replay</text>
  <text x="44" y="720" fill="#9fb2a5" font-size="13" font-family="Menlo, monospace">latchKey 0x72bd...9fe1</text>
  <rect x="18" y="766" width="354" height="58" rx="18" fill="#38f8b8"/>
  <text x="82" y="802" fill="#101411" font-size="21" font-family="Arial, Helvetica, sans-serif" font-weight="800">Fence + Execute Once</text>
</svg>
